<svg xmlns="http://www.w3.org/2000/svg" xmlns:xlink="http://www.w3.org/1999/xlink" version="1.1" x="0px" y="0px" viewBox="0 0 52 65" enable-background="new 0 0 52 52" xml:space="preserve"><g><g><g><path d="M26,50c-0.5522461,0-1-0.4477539-1-1v-8c0-0.5522461,0.4477539-1,1-1s1,0.4477539,1,1v8     C27,49.5522461,26.5522461,50,26,50z"/></g></g><g><g><path d="M34,50H18c-0.5522461,0-1-0.4477539-1-1s0.4477539-1,1-1h16c0.5522461,0,1,0.4477539,1,1S34.5522461,50,34,50z"/></g></g><g><g><g><path d="M26,37c-5.5141602,0-10.0004883-4.4858398-10.0004883-10V12c0-5.5141602,4.4858398-10,10-10s10,4.4858398,10,10v15      C35.9995117,32.5141602,31.5136719,37,26,37z M26,4c-4.4116211,0-8.0004883,3.5888672-8.0004883,8v15      c0,4.4111328,3.5888672,8,8,8H26c4.4111328,0,7.9995117-3.5888672,7.9995117-8V12C33.9995117,7.5888672,30.4111328,4,26,4z"/></g></g><g><g><path d="M26,42c-7.7197266,0-14-6.2802734-14-14v-1.8095703c0-0.5522461,0.4477539-1,1-1s1,0.4477539,1,1V28      c0,6.6166992,5.3833008,12,12,12s12-5.3833008,12-12v-1.8095703c0-0.5522461,0.4477539-1,1-1s1,0.4477539,1,1V28      C40,35.7197266,33.7197266,42,26,42z"/></g></g><g><g><path d="M34,29H18c-0.5522461,0-1-0.4477539-1-1s0.4477539-1,1-1h16c0.5522461,0,1,0.4477539,1,1S34.5522461,29,34,29z"/></g></g><g><g><path d="M21,12h-3c-0.5522461,0-1-0.4477539-1-1s0.4477539-1,1-1h3c0.5522461,0,1,0.4477539,1,1S21.5522461,12,21,12z"/></g></g><g><g><path d="M34,12h-3c-0.5522461,0-1-0.4477539-1-1s0.4477539-1,1-1h3c0.5522461,0,1,0.4477539,1,1S34.5522461,12,34,12z"/></g></g><g><g><path d="M21,16h-3c-0.5522461,0-1-0.4477539-1-1s0.4477539-1,1-1h3c0.5522461,0,1,0.4477539,1,1S21.5522461,16,21,16z"/></g></g><g><g><path d="M34,16h-3c-0.5522461,0-1-0.4477539-1-1s0.4477539-1,1-1h3c0.5522461,0,1,0.4477539,1,1S34.5522461,16,34,16z"/></g></g><g><g><path d="M21,20h-3c-0.5522461,0-1-0.4477539-1-1s0.4477539-1,1-1h3c0.5522461,0,1,0.4477539,1,1S21.5522461,20,21,20z"/></g></g><g><g><path d="M34,20h-3c-0.5522461,0-1-0.4477539-1-1s0.4477539-1,1-1h3c0.5522461,0,1,0.4477539,1,1S34.5522461,20,34,20z"/></g></g></g></g><text x="0" y="67" fill="#000000" font-size="5px" font-weight="bold" font-family="'Helvetica Neue', Helvetica, Arial-Unicode, Arial, Sans-serif">Created by Dinosoft Labs</text><text x="0" y="72" fill="#000000" font-size="5px" font-weight="bold" font-family="'Helvetica Neue', Helvetica, Arial-Unicode, Arial, Sans-serif">from the Noun Project</text></svg>